<svg width="30" height="27" viewBox="0 0 30 27" fill="none" xmlns="http://www.w3.org/2000/svg">
<path d="M6.16675 6.86377H25.3195C25.7076 6.86378 26.0914 6.93961 26.4461 7.08637C26.8008 7.23313 27.1186 7.44756 27.379 7.71583C27.6394 7.98411 27.8367 8.30029 27.958 8.64397C28.0793 8.98766 28.122 9.35124 28.0834 9.71126L27.2501 17.4807C27.1815 18.1197 26.8608 18.7122 26.35 19.1432C25.8393 19.5741 25.175 19.8128 24.4862 19.8128H11.2223C10.5799 19.813 9.95727 19.6057 9.46042 19.226C8.96357 18.8464 8.62321 18.3179 8.4973 17.7306L6.16675 6.86377Z" stroke="white" stroke-width="3" stroke-linejoin="round"/>
<path d="M6.16667 6.86382L5.04167 2.66445C4.96643 2.38443 4.79299 2.13588 4.5489 1.95828C4.30481 1.78068 4.00407 1.68421 3.69444 1.6842H2M10.3333 24.9925H13.1111M21.4444 24.9925H24.2222" stroke="white" stroke-width="3" stroke-linecap="round" stroke-linejoin="round"/>
</svg>
