<svg width="23" height="20" viewBox="0 0 23 20" fill="none" xmlns="http://www.w3.org/2000/svg">
<g clip-path="url(#clip0_1_120)">
<path d="M15.5083 9.67462L23 13.76V5.41675L15.5083 9.67462Z" fill="#040E50"/>
<path d="M0.777832 5.41675V13.76L8.2695 9.67462L0.777832 5.41675Z" fill="#040E50"/>
<path d="M21.6112 2.98706H2.1668C1.47375 2.98706 0.923747 3.43274 0.81958 4.0066L11.889 10.2976L22.9585 4.0066C22.8543 3.43274 22.3043 2.98706 21.6112 2.98706Z" fill="#040E50"/>
<path d="M14.2362 10.3982L12.2709 11.5148C12.1542 11.5806 12.0223 11.613 11.8889 11.613C11.7556 11.613 11.6237 11.5806 11.507 11.5148L9.54171 10.397L0.822266 15.1544C0.92921 15.7235 1.47643 16.1656 2.16671 16.1656H21.6112C22.3014 16.1656 22.8487 15.7235 22.9556 15.1544L14.2362 10.3982Z" fill="#040E50"/>
</g>
<defs>
<clipPath id="clip0_1_120">
<rect width="22.2222" height="19.1688" fill="white" transform="translate(0.777832 -0.00805664)"/>
</clipPath>
</defs>
</svg>
