<svg width="19" height="19" viewBox="0 0 19 19" fill="none" xmlns="http://www.w3.org/2000/svg">
<path d="M18.4443 11.656V18.4479H14.6331V12.1112C14.6331 10.5201 14.0828 9.43359 12.7029 9.43359C11.6499 9.43359 11.0243 10.1651 10.748 10.8734C10.6477 11.1266 10.6218 11.4781 10.6218 11.8331V18.4476H6.81034C6.81034 18.4476 6.8615 7.71537 6.81034 6.60444H10.6221V8.28272C10.6144 8.29594 10.6036 8.30886 10.5968 8.32149H10.6221V8.28272C11.1286 7.4775 12.0319 6.32634 14.057 6.32634C16.5644 6.32634 18.4443 8.01901 18.4443 11.656ZM2.82321 0.89563C1.51947 0.89563 0.666504 1.77985 0.666504 2.94158C0.666504 4.07864 1.49474 4.98841 2.77319 4.98841H2.79792C4.12724 4.98841 4.95377 4.07864 4.95377 2.94158C4.92848 1.77985 4.12724 0.89563 2.82321 0.89563ZM0.893032 18.4479H4.70308V6.60444H0.893032V18.4479Z" fill="#040E50"/>
</svg>
