<svg width="217" height="40" viewBox="0 0 217 40" fill="none" xmlns="http://www.w3.org/2000/svg">
<path d="M15.5834 29.7415C13.4283 29.7415 11.4113 29.4243 9.53241 28.7901C7.65356 28.1282 5.99575 27.2044 4.55898 26.0186C3.12221 24.8052 2.00319 23.3575 1.20191 21.6753C0.400638 19.9931 0 18.1317 0 16.091C0 14.1882 0.373008 12.3819 1.11902 10.6722C1.89267 8.93485 3.01169 7.40434 4.47609 6.08066C5.94049 4.7294 7.695 3.6677 9.73964 2.89555C11.8119 2.09583 14.1467 1.69597 16.7439 1.69597C17.6281 1.69597 18.5122 1.76491 19.3964 1.90279C20.3082 2.0131 21.1785 2.17856 22.0074 2.39917C22.864 2.61979 23.6376 2.85419 24.3284 3.10238C24.577 3.21268 24.7843 3.36436 24.9501 3.55739C25.1435 3.72285 25.254 3.97104 25.2816 4.30197C25.3921 5.212 25.475 6.09445 25.5303 6.94933C25.5856 7.80421 25.6132 8.57635 25.6132 9.26577C25.6132 9.56911 25.5027 9.77594 25.2816 9.88625C25.0606 9.99655 24.8119 10.0103 24.5356 9.92761C24.2869 9.8173 24.1073 9.59669 23.9968 9.26577C23.8034 8.63151 23.5685 7.99724 23.2922 7.36298C23.0436 6.72871 22.6567 6.17718 22.1318 5.70838C21.5792 5.15684 20.8055 4.70183 19.8108 4.34333C18.8438 3.98483 17.6695 3.80558 16.288 3.80558C14.8789 3.80558 13.5941 4.10893 12.4336 4.71562C11.3007 5.3223 10.3199 6.1496 9.49097 7.19752C8.68969 8.24543 8.06801 9.43123 7.62593 10.7549C7.18385 12.0786 6.96281 13.4574 6.96281 14.8914C6.96281 16.7115 7.15622 18.4074 7.54304 19.9793C7.92986 21.5236 8.52391 22.8611 9.32519 23.9917C10.1265 25.1224 11.1073 26.0048 12.2678 26.6391C13.4283 27.2734 14.796 27.5905 16.3709 27.5905C18.4155 27.5905 20.0733 27.163 21.3443 26.3082C22.6153 25.4257 23.6791 24.0882 24.5356 22.2958C24.7566 21.7994 25.0606 21.565 25.4474 21.5926C25.8619 21.6201 26.0691 21.8545 26.0691 22.2958C26.0691 22.6543 26.0276 23.0955 25.9447 23.6194C25.8895 24.1158 25.7928 24.6536 25.6546 25.2327C25.5165 25.8118 25.3507 26.4047 25.1573 27.0114C25.0468 27.3423 24.8948 27.6043 24.7014 27.7973C24.5356 27.9628 24.3146 28.1144 24.0383 28.2523C22.9883 28.6936 21.745 29.0521 20.3082 29.3278C18.8714 29.6036 17.2965 29.7415 15.5834 29.7415Z" fill="white"/>
<path d="M29.7156 29.2865C29.163 29.2865 28.8867 29.0934 28.8867 28.7073C28.8867 28.3488 29.2045 28.0731 29.8399 27.88C30.2544 27.7422 30.6136 27.5905 30.9175 27.425C31.2215 27.2596 31.3872 26.8735 31.4149 26.2668V6.41158C31.4149 5.66701 31.3182 5.01896 31.1248 4.46743C30.9313 3.91589 30.4893 3.57118 29.7985 3.4333C29.4946 3.37815 29.3426 3.17132 29.3426 2.81282C29.3426 2.45433 29.4808 2.2475 29.7571 2.19235C30.3926 2.05447 31.1109 1.86143 31.9122 1.61324C32.7411 1.33747 33.5424 1.0617 34.316 0.785936C35.0897 0.482593 35.6837 0.261979 36.0982 0.124096C36.3192 0.0413653 36.4988 0 36.637 0C36.8027 0 36.9133 0.0551535 36.9685 0.165461C37.0238 0.248191 37.0514 0.358498 37.0514 0.496382C37.0514 0.634265 37.0238 0.84109 36.9685 1.11686C36.9409 1.36505 36.9133 1.68218 36.8856 2.06825C36.858 2.42675 36.8304 2.85419 36.8028 3.35057V12.9059C36.8028 13.1817 36.8166 13.4299 36.8442 13.6505C36.8718 13.8711 36.9409 14.0228 37.0514 14.1055C37.4659 13.747 37.9632 13.3609 38.5435 12.9473C39.1237 12.506 39.7868 12.12 40.5328 11.789C41.3065 11.4581 42.163 11.2927 43.1024 11.2927C44.5668 11.2927 45.7964 11.8166 46.7911 12.8645C47.7858 13.8849 48.2831 15.3189 48.2831 17.1665V26.1841C48.2831 26.7632 48.4351 27.163 48.739 27.3837C49.0429 27.5767 49.3883 27.7422 49.7751 27.88C50.0791 27.9628 50.3001 28.0731 50.4382 28.211C50.604 28.3213 50.6869 28.4867 50.6869 28.7073C50.6869 29.0934 50.383 29.2865 49.7751 29.2865C49.112 29.2865 48.5732 29.2589 48.1588 29.2037C47.7443 29.1761 47.3437 29.1486 46.9568 29.121C46.5976 29.0934 46.1279 29.0796 45.5477 29.0796C44.9398 29.0796 44.4701 29.0934 44.1386 29.121C43.807 29.1486 43.4616 29.1761 43.1024 29.2037C42.7432 29.2589 42.2321 29.2865 41.569 29.2865C40.8782 29.2865 40.5328 29.0796 40.5328 28.666C40.5328 28.4454 40.6157 28.2799 40.7815 28.1696C40.9749 28.0317 41.1821 27.9352 41.4032 27.88C41.7624 27.7422 42.0939 27.5629 42.3979 27.3423C42.7018 27.1217 42.8538 26.708 42.8538 26.1013V17.9524C42.8538 17.3457 42.7294 16.808 42.4808 16.3392C42.2321 15.8428 41.9005 15.4567 41.4861 15.181C41.0992 14.8776 40.671 14.726 40.2013 14.726C39.7868 14.726 39.3309 14.7949 38.8336 14.9328C38.3362 15.0707 37.8527 15.3051 37.383 15.636C37.1619 15.8014 37.01 15.9945 36.9271 16.2151C36.8718 16.4081 36.8442 16.7115 36.8442 17.1251V26.1841C36.8442 26.7356 36.9823 27.1217 37.2587 27.3423C37.535 27.5353 37.8527 27.7008 38.2119 27.8387C38.4606 27.9214 38.6678 28.0317 38.8336 28.1696C38.9994 28.2799 39.0822 28.4454 39.0822 28.666C39.0822 29.0796 38.8336 29.2865 38.3362 29.2865C37.7836 29.2865 37.2587 29.2589 36.7613 29.2037C36.2916 29.1761 35.8357 29.1486 35.3936 29.121C34.9792 29.0934 34.5233 29.0796 34.0259 29.0796C33.5562 29.0796 33.0865 29.0934 32.6168 29.121C32.1747 29.1486 31.7188 29.1761 31.2491 29.2037C30.7794 29.2589 30.2682 29.2865 29.7156 29.2865Z" fill="white"/>
<path d="M52.8667 29.2865C52.7009 29.2865 52.5489 29.2451 52.4108 29.1624C52.2726 29.052 52.2036 28.9142 52.2036 28.7487C52.2036 28.5281 52.2726 28.3488 52.4108 28.211C52.5489 28.0731 52.7285 27.9766 52.9496 27.9214C53.668 27.7559 54.1653 27.5767 54.4416 27.3837C54.7455 27.163 54.8975 26.8321 54.8975 26.3909V17.456C54.8975 16.5184 54.7455 15.8566 54.4416 15.4705C54.1653 15.0569 53.7232 14.8087 53.1154 14.726C52.9496 14.6984 52.8252 14.6156 52.7423 14.4778C52.6595 14.3399 52.618 14.1744 52.618 13.9814C52.618 13.5677 52.77 13.3333 53.0739 13.2782C54.5107 13.0024 55.7817 12.6163 56.8869 12.12C58.0197 11.6236 58.8901 11.2375 59.4979 10.9617C59.94 10.7411 60.2163 10.6308 60.3268 10.6308C60.686 10.6308 60.8656 10.7963 60.8656 11.1272C60.838 11.596 60.7689 12.1889 60.6584 12.9059C60.5755 13.5953 60.4926 14.3123 60.4097 15.0569C60.3545 15.8014 60.3268 16.5184 60.3268 17.2079V26.3495C60.3268 26.7356 60.465 27.0389 60.7413 27.2596C61.0452 27.4802 61.5702 27.7008 62.3162 27.9214C62.5372 28.0041 62.7168 28.1007 62.855 28.211C62.9931 28.3213 63.0622 28.4867 63.0622 28.7073C63.0622 29.0658 62.855 29.2451 62.4405 29.2451C61.9156 29.2451 61.363 29.2313 60.7827 29.2037C60.2025 29.1761 59.6361 29.1486 59.0835 29.121C58.5585 29.0934 58.0473 29.0796 57.55 29.0796C57.0803 29.0796 56.5829 29.0934 56.058 29.121C55.5606 29.1486 55.0357 29.1761 54.4831 29.2037C53.9581 29.2589 53.4193 29.2865 52.8667 29.2865ZM57.4257 8.76939C56.5691 8.76939 55.8093 8.45226 55.1462 7.81799C54.5107 7.18373 54.1929 6.42537 54.1929 5.54292C54.1929 4.60531 54.5107 3.81937 55.1462 3.18511C55.8093 2.55085 56.5691 2.23371 57.4257 2.23371C58.3927 2.23371 59.194 2.55085 59.8295 3.18511C60.465 3.81937 60.7827 4.60531 60.7827 5.54292C60.7827 6.42537 60.465 7.18373 59.8295 7.81799C59.194 8.45226 58.3927 8.76939 57.4257 8.76939Z" fill="white"/>
<path d="M65.0484 40C64.8549 40 64.6615 39.9448 64.4681 39.8345C64.3023 39.7518 64.2195 39.6139 64.2195 39.4209C64.2195 39.2003 64.3023 39.021 64.4681 38.8831C64.6615 38.7728 64.8964 38.6763 65.1727 38.5936C65.7529 38.4006 66.1536 38.1937 66.3746 37.9731C66.6233 37.7801 66.7476 37.4629 66.7476 37.0217V17.2079C66.7476 16.8494 66.6785 16.5047 66.5404 16.1737C66.4022 15.8428 66.2088 15.5533 65.9602 15.3051C65.7115 15.0293 65.3937 14.8638 65.0069 14.8087C64.8411 14.7535 64.7168 14.6846 64.6339 14.6019C64.551 14.4916 64.5096 14.3123 64.5096 14.0641C64.5096 13.8435 64.551 13.678 64.6339 13.5677C64.7168 13.4574 64.8273 13.3885 64.9655 13.3609C65.9325 13.1403 66.9686 12.8507 68.0739 12.4922C69.1791 12.1337 70.1323 11.7615 70.9336 11.3754C71.0441 11.3202 71.1546 11.2651 71.2651 11.2099C71.4033 11.1272 71.5276 11.0858 71.6382 11.0858C71.8039 11.0858 71.9006 11.141 71.9283 11.2513C71.9835 11.334 72.0112 11.4443 72.0112 11.5822C72.0112 11.8028 71.9697 12.1751 71.8868 12.6991C71.8316 13.1954 71.8039 13.6229 71.8039 13.9814C71.8039 14.2572 71.8316 14.4226 71.8868 14.4778C72.1631 14.202 72.6467 13.8297 73.3374 13.3609C74.0558 12.8921 74.8709 12.4785 75.7827 12.12C76.6945 11.7615 77.5786 11.5822 78.4352 11.5822C79.9272 11.5822 81.1844 11.9821 82.2067 12.7818C83.2566 13.5539 84.0579 14.5605 84.6105 15.8014C85.1631 17.0148 85.4394 18.2971 85.4394 19.6484C85.4394 20.9445 85.1908 22.1992 84.6934 23.4126C84.2237 24.626 83.5468 25.7291 82.6626 26.7218C81.7784 27.687 80.7561 28.4592 79.5956 29.0383C78.4352 29.6174 77.1918 29.9069 75.8656 29.9069C75.5616 29.9069 75.1886 29.8656 74.7466 29.7828C74.3321 29.7001 73.9038 29.5898 73.4617 29.4519C73.0473 29.314 72.6605 29.1761 72.3013 29.0383C72.2736 29.0383 72.246 29.0796 72.2184 29.1624C72.1908 29.2451 72.1631 29.3416 72.1355 29.4519C72.1355 29.5622 72.1355 29.6725 72.1355 29.7828V36.6494C72.1355 37.0079 72.2184 37.3113 72.3842 37.5595C72.5776 37.8077 72.8401 38.0007 73.1716 38.1386C73.5032 38.304 73.9038 38.4557 74.3735 38.5936C74.6498 38.6763 74.8709 38.7728 75.0367 38.8831C75.2024 39.021 75.2853 39.2003 75.2853 39.4209C75.2853 39.5863 75.2024 39.7242 75.0367 39.8345C74.8985 39.9448 74.7466 40 74.5808 40C73.7519 40 72.8815 39.9586 71.9697 39.8759C71.0856 39.8207 70.2843 39.7932 69.5659 39.7932C69.0962 39.7932 68.6126 39.807 68.1153 39.8345C67.6456 39.8621 67.1482 39.8897 66.6233 39.9173C66.1259 39.9724 65.601 40 65.0484 40ZM75.7412 28.0041C76.0452 28.0041 76.4044 27.8938 76.8188 27.6732C77.2609 27.425 77.6892 27.0389 78.1036 26.515C78.5457 25.991 78.9049 25.2878 79.1812 24.4054C79.4851 23.5229 79.6371 22.4336 79.6371 21.1375C79.6371 19.6208 79.4851 18.4212 79.1812 17.5388C78.8773 16.6287 78.5043 15.9531 78.0622 15.5119C77.6201 15.0707 77.1642 14.7811 76.6945 14.6432C76.2524 14.4778 75.8656 14.395 75.534 14.395C75.0367 14.395 74.5255 14.5053 74.0005 14.726C73.4756 14.9466 73.0473 15.2085 72.7157 15.5119C72.3842 15.8152 72.2184 16.091 72.2184 16.3392C72.2184 16.5598 72.2184 16.9872 72.2184 17.6215C72.2184 18.2558 72.2046 18.959 72.1769 19.7311C72.1769 20.5033 72.1631 21.2065 72.1355 21.8407C72.1355 22.475 72.1355 22.9162 72.1355 23.1644C72.1355 23.7987 72.2736 24.5019 72.5499 25.274C72.8539 26.0186 73.2683 26.6667 73.7933 27.2182C74.3459 27.7422 74.9952 28.0041 75.7412 28.0041Z" fill="white"/>
<path d="M93.2221 29.7415C92.3103 29.7415 91.4261 29.6312 90.5696 29.4105C89.713 29.1899 88.9394 28.8314 88.2486 28.3351C88 27.9214 87.8204 27.2734 87.7099 26.3909C87.5993 25.5084 87.5579 24.5846 87.5855 23.6194C87.5855 23.2885 87.8618 23.1231 88.4144 23.1231C88.6355 23.1231 88.8289 23.192 88.9947 23.3299C89.1604 23.4678 89.2571 23.6057 89.2848 23.7435C89.8098 24.9018 90.4176 25.8945 91.1084 26.7218C91.7991 27.5215 92.628 27.9214 93.5951 27.9214C94.3411 27.9214 94.9075 27.7008 95.2943 27.2596C95.6812 26.7908 95.8746 26.2668 95.8746 25.6877C95.8746 24.9707 95.5845 24.3778 95.0042 23.909C94.4516 23.4126 93.7747 22.9576 92.9734 22.5439C92.1721 22.1303 91.4123 21.6615 90.6939 21.1375C89.9755 20.6136 89.3815 19.9931 88.9118 19.2761C88.4697 18.5315 88.2486 17.6491 88.2486 16.6287C88.2486 15.5533 88.5388 14.6156 89.119 13.8159C89.7269 13.0162 90.5281 12.3957 91.5228 11.9545C92.5451 11.4857 93.678 11.2513 94.9213 11.2513C95.8331 11.2513 96.6758 11.3616 97.4495 11.5822C98.2231 11.7752 98.7481 11.9683 99.0244 12.1613C99.2455 12.4371 99.425 12.961 99.5632 13.7332C99.7013 14.4778 99.7704 15.3051 99.7704 16.2151C99.7704 16.5184 99.5218 16.6701 99.0244 16.6701C98.831 16.6701 98.6238 16.6012 98.4027 16.4633C98.2093 16.3254 98.085 16.1875 98.0297 16.0496C97.6705 14.9741 97.2008 14.1744 96.6206 13.6505C96.068 13.0989 95.4463 12.8232 94.7555 12.8232C94.1477 12.8232 93.5951 13.0162 93.0977 13.4023C92.6004 13.7883 92.3517 14.3123 92.3517 14.9741C92.3517 15.5533 92.6142 16.0772 93.1392 16.546C93.6918 16.9872 94.3687 17.4285 95.17 17.8697C96.966 18.8073 98.2508 19.7173 99.0244 20.5998C99.7981 21.4547 100.185 22.5991 100.185 24.0331C100.185 25.8256 99.5908 27.232 98.4027 28.2523C97.2423 29.2451 95.5154 29.7415 93.2221 29.7415Z" fill="white"/>
<path d="M126.696 29.7415C124.789 29.7415 122.966 29.4243 121.225 28.7901C119.512 28.1282 117.978 27.2044 116.624 26.0186C115.298 24.8052 114.248 23.3713 113.475 21.7167C112.729 20.0345 112.356 18.173 112.356 16.1324C112.356 14.2572 112.659 12.4647 113.267 10.7549C113.903 9.01758 114.842 7.47329 116.086 6.12203C117.329 4.77077 118.862 3.69528 120.686 2.89555C122.537 2.09583 124.665 1.69597 127.069 1.69597C129.003 1.69597 130.826 2.02689 132.539 2.68873C134.28 3.32299 135.814 4.24681 137.14 5.46019C138.466 6.64598 139.516 8.07997 140.29 9.76215C141.063 11.4168 141.45 13.2644 141.45 15.3051C141.45 17.1527 141.132 18.9452 140.497 20.6825C139.861 22.4199 138.922 23.9642 137.679 25.3154C136.435 26.6667 134.888 27.7422 133.037 28.5419C131.213 29.3416 129.099 29.7415 126.696 29.7415ZM127.442 27.8387C129.017 27.8387 130.329 27.3974 131.379 26.515C132.456 25.6325 133.258 24.4054 133.783 22.8335C134.308 21.2616 134.57 19.4554 134.57 17.4147C134.57 15.7325 134.404 14.0779 134.073 12.4509C133.769 10.7963 133.272 9.30714 132.581 7.98345C131.918 6.65977 131.061 5.61186 130.011 4.83971C128.961 4.03999 127.718 3.64012 126.281 3.64012C124.734 3.64012 123.421 4.08135 122.344 4.96381C121.294 5.84626 120.506 7.05964 119.981 8.60393C119.457 10.1482 119.194 11.9407 119.194 13.9814C119.194 15.6911 119.36 17.3733 119.691 19.0279C120.023 20.6549 120.52 22.1303 121.183 23.454C121.847 24.7777 122.689 25.8394 123.712 26.6391C124.761 27.4388 126.005 27.8387 127.442 27.8387Z" fill="white"/>
<path d="M144.342 29.2865C144.148 29.2865 143.955 29.2451 143.761 29.1624C143.596 29.052 143.513 28.9004 143.513 28.7073C143.513 28.4867 143.609 28.3213 143.803 28.211C143.996 28.0731 144.217 27.9628 144.466 27.88C144.88 27.7422 145.24 27.5905 145.543 27.425C145.875 27.232 146.041 26.8597 146.041 26.3082V16.8356C146.041 16.2289 145.958 15.7187 145.792 15.3051C145.626 14.8638 145.281 14.6019 144.756 14.5191C144.646 14.4916 144.535 14.4226 144.424 14.3123C144.342 14.202 144.3 14.0227 144.3 13.7746C144.3 13.3885 144.438 13.1541 144.715 13.0714C145.405 12.9059 146.124 12.7129 146.87 12.4922C147.643 12.2441 148.376 11.9959 149.066 11.7477C149.785 11.4719 150.406 11.1824 150.931 10.879C151.014 10.8514 151.097 10.8101 151.18 10.7549C151.263 10.6998 151.346 10.6722 151.429 10.6722C151.677 10.6722 151.802 10.8239 151.802 11.1272C151.802 11.3478 151.76 11.7201 151.677 12.2441C151.622 12.768 151.594 13.223 151.594 13.6091C151.594 13.8849 151.622 14.0503 151.677 14.1055H151.76C152.617 13.2782 153.542 12.6026 154.537 12.0786C155.532 11.5546 156.665 11.2927 157.936 11.2927C158.792 11.2927 159.58 11.596 160.298 12.2027C161.016 12.7818 161.555 13.5402 161.914 14.4778H162.08C162.909 13.485 163.835 12.7129 164.857 12.1613C165.907 11.5822 167.081 11.2927 168.38 11.2927C169.236 11.2927 170.01 11.5408 170.701 12.0372C171.392 12.506 171.944 13.1817 172.359 14.0641C172.773 14.9466 172.98 15.9945 172.98 17.2079V26.3082C172.98 26.8597 173.132 27.232 173.436 27.425C173.768 27.5905 174.141 27.7422 174.555 27.88C174.776 27.9628 174.97 28.0731 175.135 28.211C175.301 28.3213 175.384 28.4867 175.384 28.7073C175.384 28.9004 175.315 29.052 175.177 29.1624C175.039 29.2451 174.873 29.2865 174.68 29.2865C174.127 29.2865 173.602 29.2589 173.105 29.2037C172.635 29.1761 172.165 29.1486 171.695 29.121C171.253 29.0934 170.784 29.0796 170.286 29.0796C169.817 29.0796 169.375 29.0934 168.96 29.121C168.546 29.1486 168.131 29.1761 167.717 29.2037C167.302 29.2589 166.819 29.2865 166.266 29.2865C166.073 29.2865 165.907 29.2451 165.769 29.1624C165.631 29.052 165.562 28.9004 165.562 28.7073C165.562 28.4867 165.631 28.3075 165.769 28.1696C165.935 28.0317 166.142 27.9352 166.39 27.88C166.75 27.7697 167.026 27.6319 167.219 27.4664C167.413 27.2734 167.509 26.97 167.509 26.5564V18.0765C167.509 17.3871 167.413 16.7942 167.219 16.2978C167.026 15.8014 166.75 15.4154 166.39 15.1396C166.059 14.8363 165.672 14.6846 165.23 14.6846C164.871 14.6846 164.47 14.7673 164.028 14.9328C163.614 15.0707 163.199 15.3189 162.785 15.6774C162.398 16.0083 162.204 16.5874 162.204 17.4147V26.3082C162.204 26.8597 162.315 27.232 162.536 27.425C162.757 27.5905 163.075 27.7422 163.489 27.88C163.71 27.9352 163.904 28.0317 164.07 28.1696C164.235 28.3075 164.318 28.4867 164.318 28.7073C164.318 28.9004 164.235 29.052 164.07 29.1624C163.931 29.2451 163.779 29.2865 163.614 29.2865C163.061 29.2865 162.564 29.2589 162.122 29.2037C161.68 29.1761 161.251 29.1486 160.837 29.121C160.45 29.0934 160.008 29.0796 159.511 29.0796C159.041 29.0796 158.599 29.0934 158.184 29.121C157.797 29.1486 157.383 29.1761 156.941 29.2037C156.526 29.2589 156.043 29.2865 155.49 29.2865C155.325 29.2865 155.173 29.2451 155.034 29.1624C154.896 29.052 154.827 28.9004 154.827 28.7073C154.827 28.4867 154.896 28.3213 155.034 28.211C155.2 28.0731 155.394 27.9628 155.615 27.88C156.002 27.7422 156.292 27.5905 156.485 27.425C156.678 27.2596 156.775 26.97 156.775 26.5564V18.0765C156.775 17.3871 156.678 16.808 156.485 16.3392C156.292 15.8428 156.029 15.4567 155.698 15.181C155.366 14.8776 154.965 14.726 154.496 14.726C154.164 14.726 153.777 14.7949 153.335 14.9328C152.921 15.0707 152.479 15.3051 152.009 15.636C151.65 15.8842 151.47 16.4219 151.47 17.2492V26.3082C151.47 26.8046 151.553 27.163 151.719 27.3837C151.912 27.5767 152.216 27.7422 152.631 27.88C152.852 27.9628 153.031 28.0731 153.169 28.211C153.335 28.3213 153.418 28.4867 153.418 28.7073C153.418 28.8728 153.349 29.0107 153.211 29.121C153.073 29.2313 152.921 29.2865 152.755 29.2865C152.202 29.2865 151.705 29.2589 151.263 29.2037C150.848 29.1761 150.434 29.1486 150.02 29.121C149.633 29.0934 149.191 29.0796 148.693 29.0796C148.224 29.0796 147.754 29.0934 147.284 29.121C146.842 29.1486 146.372 29.1761 145.875 29.2037C145.405 29.2589 144.894 29.2865 144.342 29.2865Z" fill="white"/>
<path d="M181.42 29.7415C180.674 29.7415 179.983 29.5622 179.348 29.2037C178.712 28.8452 178.201 28.3764 177.814 27.7973C177.455 27.2182 177.276 26.5839 177.276 25.8945C177.276 24.9569 177.566 24.171 178.146 23.5367C178.754 22.9024 179.638 22.3371 180.799 21.8407L184.487 20.2275C185.04 19.9793 185.371 19.7587 185.482 19.5657C185.62 19.3726 185.689 19.0141 185.689 18.4902L185.731 16.1324C185.758 15.3602 185.62 14.7535 185.316 14.3123C185.012 13.8435 184.556 13.6091 183.948 13.6091C183.589 13.6091 183.23 13.6918 182.871 13.8573C182.512 13.9952 182.235 14.1606 182.042 14.3537C181.959 14.464 181.89 14.6019 181.835 14.7673C181.807 14.9052 181.793 15.0569 181.793 15.2223C181.793 15.3878 181.807 15.5946 181.835 15.8428C181.862 16.0634 181.876 16.2565 181.876 16.4219C181.876 16.5874 181.655 16.808 181.213 17.0838C180.771 17.332 180.26 17.5664 179.68 17.787C179.099 17.98 178.602 18.0765 178.187 18.0765C177.994 18.0765 177.814 17.9938 177.649 17.8283C177.511 17.6629 177.441 17.456 177.441 17.2079C177.441 16.7666 177.593 16.3392 177.897 15.9255C178.201 15.4843 178.699 14.9879 179.389 14.4364C180.108 13.8297 180.895 13.292 181.752 12.8232C182.608 12.3544 183.451 11.9821 184.28 11.7063C185.136 11.4305 185.855 11.2927 186.435 11.2927C187.927 11.2927 189.115 11.7753 189.999 12.7404C190.884 13.678 191.298 14.9328 191.243 16.5047L191.035 24.8604C191.008 25.4947 191.118 26.0324 191.367 26.4736C191.616 26.9149 191.92 27.1355 192.279 27.1355C192.804 27.1355 193.26 26.9562 193.647 26.5977C193.729 26.515 193.812 26.4736 193.895 26.4736C194.033 26.4736 194.144 26.515 194.227 26.5977C194.337 26.6805 194.393 26.7908 194.393 26.9286C194.393 27.2596 194.144 27.687 193.647 28.211C193.122 28.7073 192.569 29.0796 191.989 29.3278C191.409 29.6036 190.801 29.7415 190.165 29.7415C188.618 29.7415 187.333 28.9555 186.311 27.3837H186.228C185.316 28.211 184.487 28.8039 183.741 29.1624C183.023 29.5484 182.249 29.7415 181.42 29.7415ZM183.907 27.0527C184.211 27.0527 184.46 27.0114 184.653 26.9286C184.846 26.8183 185.04 26.6529 185.233 26.4323C185.316 26.322 185.385 26.1841 185.44 26.0186C185.496 25.8256 185.523 25.605 185.523 25.3568L185.648 22.3785C185.648 22.1027 185.606 21.9235 185.523 21.8407C185.44 21.758 185.344 21.7167 185.233 21.7167C185.178 21.7167 185.109 21.7304 185.026 21.758C184.943 21.7856 184.846 21.827 184.736 21.8821C183.935 22.2682 183.34 22.668 182.954 23.0817C182.567 23.4678 182.373 24.102 182.373 24.9845C182.373 25.7842 182.539 26.3357 182.871 26.6391C183.202 26.9149 183.548 27.0527 183.907 27.0527Z" fill="white"/>
<path d="M195.946 29.2865C195.752 29.2865 195.559 29.2451 195.366 29.1624C195.2 29.052 195.117 28.9004 195.117 28.7073C195.117 28.4867 195.214 28.3213 195.407 28.211C195.6 28.0731 195.821 27.9628 196.07 27.88C196.485 27.7422 196.844 27.5905 197.148 27.425C197.479 27.232 197.645 26.8597 197.645 26.3082V16.8356C197.645 16.2289 197.548 15.7187 197.355 15.3051C197.189 14.8914 196.858 14.6294 196.36 14.5191C196.25 14.4916 196.139 14.4226 196.029 14.3123C195.946 14.202 195.904 14.0227 195.904 13.7746C195.904 13.3885 196.043 13.1541 196.319 13.0714C197.258 12.8507 198.281 12.5612 199.386 12.2027C200.519 11.8166 201.486 11.4168 202.287 11.0031C202.397 10.9479 202.522 10.879 202.66 10.7963C202.798 10.7135 202.922 10.6722 203.033 10.6722C203.199 10.6722 203.295 10.7273 203.323 10.8376C203.378 10.9204 203.406 11.0307 203.406 11.1686C203.406 11.3892 203.365 11.7477 203.282 12.2441C203.226 12.7129 203.199 13.1403 203.199 13.5264C203.199 13.6367 203.199 13.7608 203.199 13.8987C203.226 14.0365 203.254 14.1193 203.282 14.1468C204.221 13.2368 205.174 12.5336 206.141 12.0372C207.108 11.5408 208.227 11.2927 209.498 11.2927C210.935 11.2927 212.137 11.8304 213.104 12.9059C214.099 13.9538 214.596 15.3878 214.596 17.2079V26.3082C214.596 26.8597 214.748 27.232 215.052 27.425C215.384 27.5905 215.757 27.7422 216.171 27.88C216.392 27.9628 216.586 28.0731 216.751 28.211C216.917 28.3213 217 28.4867 217 28.7073C217 28.9004 216.917 29.052 216.751 29.1624C216.613 29.2451 216.461 29.2865 216.295 29.2865C215.743 29.2865 215.218 29.2589 214.721 29.2037C214.251 29.1761 213.781 29.1486 213.311 29.121C212.869 29.0934 212.4 29.0796 211.902 29.0796C211.433 29.0796 210.963 29.0934 210.493 29.121C210.023 29.1486 209.554 29.1761 209.084 29.2037C208.614 29.2589 208.103 29.2865 207.55 29.2865C207.385 29.2865 207.219 29.2451 207.053 29.1624C206.915 29.052 206.846 28.9004 206.846 28.7073C206.846 28.4867 206.929 28.3213 207.095 28.211C207.26 28.0731 207.454 27.9628 207.675 27.88C208.089 27.7422 208.435 27.5905 208.711 27.425C208.987 27.232 209.125 26.8597 209.125 26.3082V18.0765C209.125 17.0286 208.877 16.2151 208.379 15.636C207.91 15.0293 207.274 14.7122 206.473 14.6846C205.865 14.6846 205.326 14.7811 204.857 14.9741C204.387 15.1672 203.903 15.4292 203.406 15.7601C203.295 15.8704 203.213 15.9945 203.157 16.1324C203.102 16.2703 203.074 16.4081 203.074 16.546V26.3082C203.074 26.8597 203.226 27.232 203.53 27.425C203.834 27.5905 204.18 27.7422 204.566 27.88C205.119 28.0455 205.395 28.3213 205.395 28.7073C205.395 28.8728 205.326 29.0107 205.188 29.121C205.05 29.2313 204.884 29.2865 204.691 29.2865C204.138 29.2865 203.627 29.2589 203.157 29.2037C202.688 29.1761 202.245 29.1486 201.831 29.121C201.417 29.0934 200.961 29.0796 200.463 29.0796C199.994 29.0796 199.51 29.0934 199.013 29.121C198.543 29.1486 198.046 29.1761 197.521 29.2037C197.023 29.2589 196.498 29.2865 195.946 29.2865Z" fill="white"/>
</svg>
