<svg width="21" height="18" viewBox="0 0 21 18" fill="none" xmlns="http://www.w3.org/2000/svg">
<path d="M20.8887 2.84368C20.153 3.17393 19.3617 3.39729 18.5318 3.49705C19.3791 2.98309 20.0294 2.16985 20.3363 1.19924C19.5435 1.67541 18.6649 2.02084 17.7307 2.20703C16.9822 1.39999 15.9157 0.89563 14.7349 0.89563C12.4692 0.89563 10.6316 2.756 10.6316 5.04979C10.6316 5.37539 10.668 5.69232 10.7384 5.99655C7.32828 5.82337 4.30463 4.16964 2.2807 1.65558C1.92757 2.26899 1.72499 2.98309 1.72499 3.74427C1.72499 5.18517 2.44992 6.45723 3.55032 7.20199C2.87802 7.18062 2.24489 6.99381 1.69194 6.68183C1.69163 6.69949 1.69163 6.71715 1.69163 6.7345C1.69163 8.74729 3.10661 10.4261 4.98335 10.8075C4.6394 10.9029 4.27617 10.9534 3.90253 10.9534C3.63753 10.9534 3.38079 10.9277 3.13048 10.8794C3.65253 12.5294 5.16757 13.7305 6.96352 13.7643C5.55895 14.8786 3.78992 15.5425 1.86698 15.5425C1.53649 15.5425 1.20906 15.523 0.888672 15.4843C2.7036 16.6634 4.86095 17.3509 7.17803 17.3509C14.7254 17.3509 18.8528 11.0209 18.8528 5.53091C18.8528 5.35092 18.8488 5.17154 18.8409 4.99371C19.6432 4.40818 20.3388 3.67674 20.8887 2.84368Z" fill="#040E50"/>
</svg>
